<svg width="276" height="240" viewBox="0 0 276 240" fill="none" xmlns="http://www.w3.org/2000/svg">
<path d="M138 2.8252H266.091C269.61 2.8252 271.721 4.15311 272.819 6.89368C273.1 7.83627 273.21 8.82209 273.143 9.80377V188.322C273.143 193.846 270.919 196.064 265.387 196.064H10.557C9.46323 196.111 8.36834 196.002 7.30543 195.739C6.02776 195.385 4.90141 194.62 4.10013 193.561C3.29884 192.501 2.8671 191.206 2.87149 189.876C2.87149 189.354 2.87149 188.831 2.87149 188.308V10.5101C2.87149 4.97245 4.9829 2.8252 10.4584 2.8252H138ZM137.887 178.999H253.788C256.35 178.999 256.35 178.999 256.35 176.484C256.35 125.176 256.35 73.8493 256.35 22.5036C256.35 19.9326 256.35 19.9185 253.816 19.9185H22.2117C19.6499 19.9185 19.6358 19.9185 19.6358 22.4613V176.442C19.6358 178.985 19.6358 178.999 22.1836 178.999H137.887Z" stroke="#F38252" stroke-width="3" stroke-miterlimit="10"/>
<path d="M92.6334 66.791V107.377H100.882V117.266H92.6334V133.2H82.0202V117.322H50.9688V107.433C56.1111 100.719 61.1926 93.966 66.213 87.1758C71.2334 80.3856 76.2913 73.6047 81.3868 66.8334L92.6334 66.791ZM82.0202 107.561V87.0486C82.0202 86.6436 82.0202 85.9091 82.0202 84.8448C82.0202 83.7806 82.0624 82.6646 82.1469 81.4968L62.8488 107.561H82.0202Z" fill="#F38252"/>
<path d="M216.093 66.791V107.377H224.341V117.266H216.093V133.2H205.48V117.322H174.428V107.433C179.571 100.7 184.629 93.9236 189.602 87.1051C194.576 80.2867 199.634 73.5058 204.776 66.7627L216.093 66.791ZM205.48 107.56V87.0486C205.48 86.6436 205.48 85.909 205.48 84.8448C205.48 83.7806 205.522 82.6646 205.606 81.4968L186.308 107.56H205.48Z" fill="#F38252"/>
<ellipse cx="137.5" cy="101.5" rx="32.5" ry="34.5" fill="url(#paint0_linear_224_638)"/>
<path d="M136.779 86.8527C138.119 86.8527 139.205 85.7664 139.205 84.4263C139.205 83.0863 138.119 82 136.779 82C135.439 82 134.353 83.0863 134.353 84.4263C134.353 85.7664 135.439 86.8527 136.779 86.8527Z" fill="white"/>
<path d="M114.639 91.843C115.545 91.843 116.279 91.1089 116.279 90.2035C116.279 89.298 115.545 88.564 114.639 88.564C113.734 88.564 113 89.298 113 90.2035C113 91.1089 113.734 91.843 114.639 91.843Z" fill="white"/>
<path d="M160.546 91.843C161.452 91.843 162.186 91.1089 162.186 90.2035C162.186 89.298 161.452 88.564 160.546 88.564C159.641 88.564 158.907 89.298 158.907 90.2035C158.907 91.1089 159.641 91.843 160.546 91.843Z" fill="white"/>
<path d="M116.07 94.415L126.755 105.967C126.802 106.019 126.861 106.058 126.926 106.082C126.991 106.106 127.061 106.114 127.13 106.106C127.199 106.097 127.265 106.072 127.322 106.033C127.379 105.993 127.426 105.941 127.459 105.879L136.843 88.931C136.942 88.7509 137.044 88.7509 137.148 88.931L147.161 106.175C147.174 106.199 147.194 106.22 147.217 106.236C147.24 106.252 147.267 106.262 147.295 106.266C147.322 106.269 147.351 106.266 147.377 106.257C147.404 106.248 147.428 106.232 147.447 106.212L158.426 94.5155C158.443 94.4987 158.465 94.488 158.489 94.4849C158.513 94.4819 158.537 94.4868 158.558 94.4988C158.579 94.5108 158.596 94.5292 158.606 94.5515C158.616 94.5737 158.618 94.5986 158.613 94.6223L152.488 114.686C152.421 114.896 152.28 115 152.064 115H122.257C122.192 115.001 122.129 114.98 122.077 114.941C122.025 114.903 121.988 114.849 121.97 114.787L115.939 94.4904C115.877 94.2768 115.92 94.2516 116.07 94.415Z" fill="white"/>
<path d="M119.756 196.507L118.665 196.507L118.329 197.545L111.576 218.427L110.941 220.391L113.005 220.388L168.786 220.316L170.845 220.314L170.212 218.355L163.485 197.539L163.149 196.5L162.058 196.5L119.756 196.507Z" stroke="#F38252" stroke-width="3"/>
<path d="M190.124 220.48L190.123 220.48C182.997 220.559 175.878 220.505 168.766 220.316L113.015 220.389C105.728 220.494 98.422 220.524 91.096 220.48L190.124 220.48ZM190.124 220.48C193.437 220.441 195.576 220.725 196.738 221.192C204.277 224.228 204.182 234.743 196.768 237.708L196.767 237.709M190.124 220.48L196.767 237.709M196.767 237.709C195.556 238.194 193.657 238.487 190.953 238.487L196.767 237.709ZM190.953 238.487C157.795 238.478 124.637 238.476 91.4784 238.48L190.953 238.487ZM91.4782 238.48C88.1985 238.48 86.1142 238.203 85.0247 237.777C77.7781 234.926 77.6212 224.15 84.7877 221.216C85.9245 220.752 87.9666 220.463 91.0954 220.48L91.4782 238.48Z" stroke="#F38252" stroke-width="3"/>
<defs>
<linearGradient id="paint0_linear_224_638" x1="109.354" y1="118.75" x2="167.276" y2="87.2474" gradientUnits="userSpaceOnUse">
<stop stop-color="#FF8C21"/>
<stop offset="1" stop-color="#F5576E"/>
</linearGradient>
</defs>
</svg>
