<svg width="199" height="46" viewBox="0 0 199 46" fill="none" xmlns="http://www.w3.org/2000/svg">
<path d="M18.92 17.12C18.92 16.56 18.68 16.08 18.2 15.68C17.7467 15.28 17.2 15.08 16.56 15.08C15.28 15.08 14.2267 15.8133 13.4 17.28C12.5733 18.72 12.16 20.36 12.16 22.2C12.16 23.6133 12.4267 24.8933 12.96 26.04C13.4933 27.16 14.2667 28.0533 15.28 28.72C16.2933 29.3867 17.4667 29.72 18.8 29.72C19.7867 29.72 20.7333 29.5333 21.64 29.16C22.5467 28.76 23.28 28.3333 23.84 27.88C24.4 27.4 24.9733 26.9733 25.56 26.6C26.1733 26.2 26.7067 26 27.16 26C27.7467 26 28.2533 26.24 28.68 26.72C29.1067 27.1733 29.32 27.6533 29.32 28.16C29.32 28.72 29.1467 29.3733 28.8 30.12C28.48 30.8667 27.96 31.6667 27.24 32.52C26.52 33.3467 25.68 34.12 24.72 34.84C23.76 35.5333 22.56 36.12 21.12 36.6C19.7067 37.0533 18.2133 37.28 16.64 37.28C14.56 37.28 12.6267 36.9733 10.84 36.36C9.08 35.72 7.54667 34.8267 6.24 33.68C4.93333 32.5067 3.90667 31.04 3.16 29.28C2.41333 27.52 2.04 25.5467 2.04 23.36C2.04 19.04 3.33333 15.6267 5.92 13.12C8.50667 10.6133 11.8933 9.36 16.08 9.36C18.2133 9.36 20.1867 9.72 22 10.44C23.8133 11.16 25.2533 12.16 26.32 13.44C27.3867 14.72 27.92 16.12 27.92 17.64C27.92 19.4 27.3333 21 26.16 22.44C24.9867 23.8533 23.4667 24.56 21.6 24.56C20.5333 24.56 19.5733 24.2667 18.72 23.68C17.8667 23.0933 17.44 22.2533 17.44 21.16C17.44 20.6533 17.68 19.9467 18.16 19.04C18.6667 18.1333 18.92 17.4933 18.92 17.12ZM43.7775 37.24C40.5242 37.24 37.8308 36.4 35.6975 34.72C33.5908 33.04 32.5375 30.7467 32.5375 27.84C32.5375 24.6933 33.5775 22.2133 35.6575 20.4C37.7642 18.56 40.4708 17.64 43.7775 17.64C46.8975 17.64 49.1775 18.2 50.6175 19.32C52.0842 20.4133 52.8175 21.92 52.8175 23.84C52.8175 24.2133 52.7642 24.5733 52.6575 24.92C52.5775 25.2667 52.4308 25.6133 52.2175 25.96C52.0308 26.28 51.7642 26.5867 51.4175 26.88C51.0975 27.1467 50.7242 27.4 50.2975 27.64C49.8708 27.8533 49.3642 28.0267 48.7775 28.16C48.1908 28.2667 47.5642 28.32 46.8975 28.32L41.2575 28.36C41.5242 29.2133 42.0042 29.8933 42.6975 30.4C43.3908 30.88 44.2708 31.12 45.3375 31.12C46.4842 31.12 47.6575 30.9733 48.8575 30.68C49.3642 30.5467 49.9108 30.3333 50.4975 30.04C51.1108 29.7467 51.5508 29.6 51.8175 29.6C52.2708 29.6 52.6175 29.7333 52.8575 30C53.1242 30.2667 53.2575 30.6 53.2575 31C53.2575 31.48 53.0442 32.0667 52.6175 32.76C52.1908 33.4267 51.5908 34.1067 50.8175 34.8C50.0708 35.4667 49.0708 36.04 47.8175 36.52C46.5642 37 45.2175 37.24 43.7775 37.24ZM41.0575 25.8C42.8975 25.7733 43.8975 25.76 44.0575 25.76C44.4575 25.76 44.7508 25.52 44.9375 25.04C45.0708 24.6933 45.1375 24.2133 45.1375 23.6C45.1375 21.92 44.6308 21.08 43.6175 21.08C43.2442 21.08 42.8708 21.28 42.4975 21.68C42.1508 22.08 41.8442 22.6533 41.5775 23.4C41.3108 24.12 41.1375 24.92 41.0575 25.8ZM65.3666 30.96C65.3666 33.12 65.0066 34.6667 64.2866 35.6C63.5666 36.5333 62.4599 37 60.9666 37C59.4732 37 58.3799 36.5867 57.6866 35.76C56.9932 34.9067 56.6466 33.4133 56.6466 31.28L56.5666 14.4C56.5666 13.7067 56.6332 13.0933 56.7666 12.56C56.9266 12.0267 57.1266 11.5733 57.3666 11.2C57.6332 10.8267 57.9532 10.52 58.3266 10.28C58.6999 10.04 59.0999 9.86666 59.5266 9.76C59.9799 9.65333 60.4599 9.6 60.9666 9.6C62.4332 9.6 63.5266 9.89333 64.2466 10.48C64.9932 11.0667 65.3666 12.2533 65.3666 14.04V30.96ZM80.0275 37.24C76.7742 37.24 74.0808 36.4 71.9475 34.72C69.8408 33.04 68.7875 30.7467 68.7875 27.84C68.7875 24.6933 69.8275 22.2133 71.9075 20.4C74.0142 18.56 76.7208 17.64 80.0275 17.64C83.1475 17.64 85.4275 18.2 86.8675 19.32C88.3342 20.4133 89.0675 21.92 89.0675 23.84C89.0675 24.2133 89.0142 24.5733 88.9075 24.92C88.8275 25.2667 88.6808 25.6133 88.4675 25.96C88.2808 26.28 88.0142 26.5867 87.6675 26.88C87.3475 27.1467 86.9742 27.4 86.5475 27.64C86.1208 27.8533 85.6142 28.0267 85.0275 28.16C84.4408 28.2667 83.8142 28.32 83.1475 28.32L77.5075 28.36C77.7742 29.2133 78.2542 29.8933 78.9475 30.4C79.6408 30.88 80.5208 31.12 81.5875 31.12C82.7342 31.12 83.9075 30.9733 85.1075 30.68C85.6142 30.5467 86.1608 30.3333 86.7475 30.04C87.3608 29.7467 87.8008 29.6 88.0675 29.6C88.5208 29.6 88.8675 29.7333 89.1075 30C89.3742 30.2667 89.5075 30.6 89.5075 31C89.5075 31.48 89.2942 32.0667 88.8675 32.76C88.4408 33.4267 87.8408 34.1067 87.0675 34.8C86.3208 35.4667 85.3208 36.04 84.0675 36.52C82.8142 37 81.4675 37.24 80.0275 37.24ZM77.3075 25.8C79.1475 25.7733 80.1475 25.76 80.3075 25.76C80.7075 25.76 81.0008 25.52 81.1875 25.04C81.3208 24.6933 81.3875 24.2133 81.3875 23.6C81.3875 21.92 80.8808 21.08 79.8675 21.08C79.4942 21.08 79.1208 21.28 78.7475 21.68C78.4008 22.08 78.0942 22.6533 77.8275 23.4C77.5608 24.12 77.3875 24.92 77.3075 25.8ZM101.657 19.56C103.417 18.2533 105.323 17.6 107.377 17.6C109.457 17.6 111.19 18.48 112.577 20.24C113.963 22 114.657 24.2267 114.657 26.92C114.657 30.1733 113.603 32.72 111.497 34.56C109.39 36.3733 106.657 37.28 103.297 37.28C101.243 37.28 99.4432 36.9867 97.8966 36.4C96.3766 35.8133 95.1766 34.9333 94.2966 33.76C93.4432 32.5867 93.0032 31.1733 92.9766 29.52L92.8966 14.44C92.8966 12.7867 93.2966 11.5733 94.0966 10.8C94.8966 10.0267 95.9632 9.64 97.2966 9.64C98.7899 9.64 99.8832 10 100.577 10.72C101.297 11.4133 101.657 12.5333 101.657 14.08V19.56ZM101.697 30.88C102.177 31.7867 102.843 32.24 103.697 32.24C104.417 32.24 104.977 31.7867 105.377 30.88C105.777 29.9733 105.977 28.9333 105.977 27.76C105.977 27.12 105.923 26.4933 105.817 25.88C105.71 25.2667 105.563 24.72 105.377 24.24C105.19 23.7333 104.95 23.3333 104.657 23.04C104.363 22.72 104.03 22.56 103.657 22.56C102.83 22.56 102.177 23.0533 101.697 24.04C101.697 24.3867 101.697 25.3867 101.697 27.04C101.697 28.6667 101.697 29.9467 101.697 30.88ZM126.573 32.72C126.573 34.32 126.239 35.44 125.573 36.08C124.906 36.6933 123.719 37 122.013 37C120.439 37 119.373 36.64 118.813 35.92C118.253 35.1733 117.973 33.96 117.973 32.28V22.44C117.973 21.5333 118.133 20.7467 118.453 20.08C118.773 19.3867 119.239 18.8533 119.853 18.48C120.466 18.1067 121.186 17.92 122.013 17.92C124.039 17.92 125.373 18.5067 126.013 19.68C127.559 18.5067 129.053 17.92 130.493 17.92C133.293 17.92 134.693 19.2533 134.693 21.92C134.693 22.9867 134.386 23.8533 133.773 24.52C133.159 25.1867 132.359 25.52 131.373 25.52C130.786 25.52 130.306 25.4 129.933 25.16C129.586 24.92 129.253 24.68 128.933 24.44C128.639 24.2 128.293 24.08 127.893 24.08C127.306 24.08 126.866 24.28 126.573 24.68V32.72ZM147.059 37.24C143.805 37.24 141.112 36.4 138.979 34.72C136.872 33.04 135.819 30.7467 135.819 27.84C135.819 24.6933 136.859 22.2133 138.939 20.4C141.045 18.56 143.752 17.64 147.059 17.64C150.179 17.64 152.459 18.2 153.899 19.32C155.365 20.4133 156.099 21.92 156.099 23.84C156.099 24.2133 156.045 24.5733 155.939 24.92C155.859 25.2667 155.712 25.6133 155.499 25.96C155.312 26.28 155.045 26.5867 154.699 26.88C154.379 27.1467 154.005 27.4 153.579 27.64C153.152 27.8533 152.645 28.0267 152.059 28.16C151.472 28.2667 150.845 28.32 150.179 28.32L144.539 28.36C144.805 29.2133 145.285 29.8933 145.979 30.4C146.672 30.88 147.552 31.12 148.619 31.12C149.765 31.12 150.939 30.9733 152.139 30.68C152.645 30.5467 153.192 30.3333 153.779 30.04C154.392 29.7467 154.832 29.6 155.099 29.6C155.552 29.6 155.899 29.7333 156.139 30C156.405 30.2667 156.539 30.6 156.539 31C156.539 31.48 156.325 32.0667 155.899 32.76C155.472 33.4267 154.872 34.1067 154.099 34.8C153.352 35.4667 152.352 36.04 151.099 36.52C149.845 37 148.499 37.24 147.059 37.24ZM144.339 25.8C146.179 25.7733 147.179 25.76 147.339 25.76C147.739 25.76 148.032 25.52 148.219 25.04C148.352 24.6933 148.419 24.2133 148.419 23.6C148.419 21.92 147.912 21.08 146.899 21.08C146.525 21.08 146.152 21.28 145.779 21.68C145.432 22.08 145.125 22.6533 144.859 23.4C144.592 24.12 144.419 24.92 144.339 25.8ZM183.568 26.44C183.568 24.9467 182.968 24.2 181.768 24.2C181.234 24.2 180.834 24.5067 180.568 25.12C180.301 25.7333 180.168 26.5067 180.168 27.44C180.168 28.8533 180.141 30.0267 180.088 30.96C180.061 31.8933 179.981 32.7333 179.848 33.48C179.714 34.2267 179.554 34.8133 179.368 35.24C179.181 35.6667 178.928 36.0267 178.608 36.32C178.288 36.5867 177.928 36.7733 177.528 36.88C177.128 36.96 176.621 37 176.008 37C175.074 37 174.314 36.8667 173.728 36.6C173.168 36.3333 172.768 35.96 172.528 35.48C172.288 35 172.168 34.4 172.168 33.68V26.44C172.168 24.9467 171.568 24.2 170.368 24.2C169.888 24.2 169.488 24.48 169.168 25.04C168.874 25.5733 168.728 26.28 168.728 27.16V32.72C168.728 34.32 168.394 35.44 167.728 36.08C167.061 36.6933 165.888 37 164.208 37C162.634 37 161.554 36.64 160.968 35.92C160.408 35.1733 160.128 33.96 160.128 32.28V22.44C160.128 21.08 160.488 19.9867 161.208 19.16C161.954 18.3333 162.941 17.92 164.168 17.92C166.354 17.92 167.741 18.6267 168.328 20.04C169.341 19.2933 170.328 18.7733 171.288 18.48C172.274 18.1867 173.421 18.04 174.728 18.04C176.701 18.04 178.128 18.8933 179.008 20.6C179.141 20.4933 179.274 20.3867 179.408 20.28C181.461 18.7867 183.981 18.04 186.968 18.04C188.861 18.04 190.221 18.76 191.048 20.2C191.874 21.64 192.288 24.0533 192.288 27.44C192.288 28.8533 192.261 30.0267 192.208 30.96C192.181 31.8933 192.101 32.7333 191.968 33.48C191.834 34.2267 191.661 34.8133 191.448 35.24C191.261 35.6667 190.981 36.0267 190.608 36.32C190.261 36.5867 189.861 36.7733 189.408 36.88C188.981 36.96 188.434 37 187.768 37C186.754 37 185.928 36.8667 185.288 36.6C184.674 36.3333 184.234 35.96 183.968 35.48C183.701 35 183.568 34.4 183.568 33.68V26.44Z" fill="#F38252"/>
</svg>
