<svg width="272" height="53" viewBox="0 0 272 53" fill="none" xmlns="http://www.w3.org/2000/svg">
<path d="M26.488 24.168C26.488 23.384 26.152 22.712 25.48 22.152C24.8453 21.592 24.08 21.312 23.184 21.312C21.392 21.312 19.9173 22.3387 18.76 24.392C17.6027 26.408 17.024 28.704 17.024 31.28C17.024 33.2587 17.3973 35.0507 18.144 36.656C18.8907 38.224 19.9733 39.4747 21.392 40.408C22.8107 41.3413 24.4533 41.808 26.32 41.808C27.7013 41.808 29.0267 41.5467 30.296 41.024C31.5653 40.464 32.592 39.8667 33.376 39.232C34.16 38.56 34.9627 37.9627 35.784 37.44C36.6427 36.88 37.3893 36.6 38.024 36.6C38.8453 36.6 39.5547 36.936 40.152 37.608C40.7493 38.2427 41.048 38.9147 41.048 39.624C41.048 40.408 40.8053 41.3227 40.32 42.368C39.872 43.4133 39.144 44.5333 38.136 45.728C37.128 46.8853 35.952 47.968 34.608 48.976C33.264 49.9467 31.584 50.768 29.568 51.44C27.5893 52.0747 25.4987 52.392 23.296 52.392C20.384 52.392 17.6773 51.9627 15.176 51.104C12.712 50.208 10.5653 48.9573 8.736 47.352C6.90667 45.7093 5.46933 43.656 4.424 41.192C3.37867 38.728 2.856 35.9653 2.856 32.904C2.856 26.856 4.66667 22.0773 8.288 18.568C11.9093 15.0587 16.6507 13.304 22.512 13.304C25.4987 13.304 28.2613 13.808 30.8 14.816C33.3387 15.824 35.3547 17.224 36.848 19.016C38.3413 20.808 39.088 22.768 39.088 24.896C39.088 27.36 38.2667 29.6 36.624 31.616C34.9813 33.5947 32.8533 34.584 30.24 34.584C28.7467 34.584 27.4027 34.1733 26.208 33.352C25.0133 32.5307 24.416 31.3547 24.416 29.824C24.416 29.1147 24.752 28.1253 25.424 26.856C26.1333 25.5867 26.488 24.6907 26.488 24.168ZM61.2885 52.336C56.7338 52.336 52.9632 51.16 49.9765 48.808C47.0272 46.456 45.5525 43.2453 45.5525 39.176C45.5525 34.7707 47.0085 31.2987 49.9205 28.76C52.8698 26.184 56.6592 24.896 61.2885 24.896C65.6565 24.896 68.8485 25.68 70.8645 27.248C72.9178 28.7787 73.9445 30.888 73.9445 33.576C73.9445 34.0987 73.8698 34.6027 73.7205 35.088C73.6085 35.5733 73.4032 36.0587 73.1045 36.544C72.8432 36.992 72.4698 37.4213 71.9845 37.832C71.5365 38.2053 71.0138 38.56 70.4165 38.896C69.8192 39.1947 69.1098 39.4373 68.2885 39.624C67.4672 39.7733 66.5898 39.848 65.6565 39.848L57.7605 39.904C58.1338 41.0987 58.8058 42.0507 59.7765 42.76C60.7472 43.432 61.9792 43.768 63.4725 43.768C65.0778 43.768 66.7205 43.5627 68.4005 43.152C69.1098 42.9653 69.8752 42.6667 70.6965 42.256C71.5552 41.8453 72.1712 41.64 72.5445 41.64C73.1792 41.64 73.6645 41.8267 74.0005 42.2C74.3738 42.5733 74.5605 43.04 74.5605 43.6C74.5605 44.272 74.2618 45.0933 73.6645 46.064C73.0672 46.9973 72.2272 47.9493 71.1445 48.92C70.0992 49.8533 68.6992 50.656 66.9445 51.328C65.1898 52 63.3045 52.336 61.2885 52.336ZM57.4805 36.32C60.0565 36.2827 61.4565 36.264 61.6805 36.264C62.2405 36.264 62.6512 35.928 62.9125 35.256C63.0992 34.7707 63.1925 34.0987 63.1925 33.24C63.1925 30.888 62.4832 29.712 61.0645 29.712C60.5418 29.712 60.0192 29.992 59.4965 30.552C59.0112 31.112 58.5818 31.9147 58.2085 32.96C57.8352 33.968 57.5925 35.088 57.4805 36.32ZM91.5132 43.544C91.5132 46.568 91.0092 48.7333 90.0012 50.04C88.9932 51.3467 87.4439 52 85.3532 52C83.2625 52 81.7319 51.4213 80.7612 50.264C79.7905 49.0693 79.3052 46.9787 79.3052 43.992L79.1932 20.36C79.1932 19.3893 79.2865 18.5307 79.4732 17.784C79.6972 17.0373 79.9772 16.4027 80.3132 15.88C80.6865 15.3573 81.1345 14.928 81.6572 14.592C82.1799 14.256 82.7399 14.0133 83.3372 13.864C83.9719 13.7147 84.6439 13.64 85.3532 13.64C87.4065 13.64 88.9372 14.0507 89.9452 14.872C90.9905 15.6933 91.5132 17.3547 91.5132 19.856V43.544ZM112.039 52.336C107.484 52.336 103.713 51.16 100.727 48.808C97.7772 46.456 96.3025 43.2453 96.3025 39.176C96.3025 34.7707 97.7585 31.2987 100.671 28.76C103.62 26.184 107.409 24.896 112.039 24.896C116.407 24.896 119.599 25.68 121.615 27.248C123.668 28.7787 124.695 30.888 124.695 33.576C124.695 34.0987 124.62 34.6027 124.471 35.088C124.359 35.5733 124.153 36.0587 123.855 36.544C123.593 36.992 123.22 37.4213 122.735 37.832C122.287 38.2053 121.764 38.56 121.167 38.896C120.569 39.1947 119.86 39.4373 119.039 39.624C118.217 39.7733 117.34 39.848 116.407 39.848L108.511 39.904C108.884 41.0987 109.556 42.0507 110.526 42.76C111.497 43.432 112.729 43.768 114.223 43.768C115.828 43.768 117.471 43.5627 119.151 43.152C119.86 42.9653 120.625 42.6667 121.447 42.256C122.305 41.8453 122.921 41.64 123.295 41.64C123.929 41.64 124.415 41.8267 124.751 42.2C125.124 42.5733 125.311 43.04 125.311 43.6C125.311 44.272 125.012 45.0933 124.415 46.064C123.817 46.9973 122.977 47.9493 121.895 48.92C120.849 49.8533 119.449 50.656 117.695 51.328C115.94 52 114.055 52.336 112.039 52.336ZM108.231 36.32C110.807 36.2827 112.207 36.264 112.431 36.264C112.991 36.264 113.401 35.928 113.663 35.256C113.849 34.7707 113.943 34.0987 113.943 33.24C113.943 30.888 113.233 29.712 111.815 29.712C111.292 29.712 110.769 29.992 110.247 30.552C109.761 31.112 109.332 31.9147 108.959 32.96C108.585 33.968 108.343 35.088 108.231 36.32ZM142.319 27.584C144.783 25.7547 147.453 24.84 150.327 24.84C153.239 24.84 155.666 26.072 157.607 28.536C159.549 31 160.519 34.1173 160.519 37.888C160.519 42.4427 159.045 46.008 156.095 48.584C153.146 51.1227 149.319 52.392 144.615 52.392C141.741 52.392 139.221 51.9813 137.055 51.16C134.927 50.3387 133.247 49.1067 132.015 47.464C130.821 45.8213 130.205 43.8427 130.167 41.528L130.055 20.416C130.055 18.1013 130.615 16.4027 131.735 15.32C132.855 14.2373 134.349 13.696 136.215 13.696C138.306 13.696 139.837 14.2 140.807 15.208C141.815 16.1787 142.319 17.7467 142.319 19.912V27.584ZM142.375 43.432C143.047 44.7013 143.981 45.336 145.175 45.336C146.183 45.336 146.967 44.7013 147.527 43.432C148.087 42.1627 148.367 40.7067 148.367 39.064C148.367 38.168 148.293 37.2907 148.143 36.432C147.994 35.5733 147.789 34.808 147.527 34.136C147.266 33.4267 146.93 32.8667 146.519 32.456C146.109 32.008 145.642 31.784 145.119 31.784C143.962 31.784 143.047 32.4747 142.375 33.856C142.375 34.3413 142.375 35.7413 142.375 38.056C142.375 40.3333 142.375 42.1253 142.375 43.432ZM177.202 46.008C177.202 48.248 176.735 49.816 175.802 50.712C174.869 51.5707 173.207 52 170.818 52C168.615 52 167.122 51.496 166.338 50.488C165.554 49.4427 165.162 47.744 165.162 45.392V31.616C165.162 30.3467 165.386 29.2453 165.834 28.312C166.282 27.3413 166.935 26.5947 167.794 26.072C168.653 25.5493 169.661 25.288 170.818 25.288C173.655 25.288 175.522 26.1093 176.418 27.752C178.583 26.1093 180.674 25.288 182.69 25.288C186.61 25.288 188.57 27.1547 188.57 30.888C188.57 32.3813 188.141 33.5947 187.282 34.528C186.423 35.4613 185.303 35.928 183.922 35.928C183.101 35.928 182.429 35.76 181.906 35.424C181.421 35.088 180.954 34.752 180.506 34.416C180.095 34.08 179.61 33.912 179.05 33.912C178.229 33.912 177.613 34.192 177.202 34.752V46.008ZM205.882 52.336C201.328 52.336 197.557 51.16 194.57 48.808C191.621 46.456 190.146 43.2453 190.146 39.176C190.146 34.7707 191.602 31.2987 194.514 28.76C197.464 26.184 201.253 24.896 205.882 24.896C210.25 24.896 213.442 25.68 215.458 27.248C217.512 28.7787 218.538 30.888 218.538 33.576C218.538 34.0987 218.464 34.6027 218.314 35.088C218.202 35.5733 217.997 36.0587 217.698 36.544C217.437 36.992 217.064 37.4213 216.578 37.832C216.13 38.2053 215.608 38.56 215.01 38.896C214.413 39.1947 213.704 39.4373 212.882 39.624C212.061 39.7733 211.184 39.848 210.25 39.848L202.354 39.904C202.728 41.0987 203.4 42.0507 204.37 42.76C205.341 43.432 206.573 43.768 208.066 43.768C209.672 43.768 211.314 43.5627 212.994 43.152C213.704 42.9653 214.469 42.6667 215.29 42.256C216.149 41.8453 216.765 41.64 217.138 41.64C217.773 41.64 218.258 41.8267 218.594 42.2C218.968 42.5733 219.154 43.04 219.154 43.6C219.154 44.272 218.856 45.0933 218.258 46.064C217.661 46.9973 216.821 47.9493 215.738 48.92C214.693 49.8533 213.293 50.656 211.538 51.328C209.784 52 207.898 52.336 205.882 52.336ZM202.074 36.32C204.65 36.2827 206.05 36.264 206.274 36.264C206.834 36.264 207.245 35.928 207.506 35.256C207.693 34.7707 207.786 34.0987 207.786 33.24C207.786 30.888 207.077 29.712 205.658 29.712C205.136 29.712 204.613 29.992 204.09 30.552C203.605 31.112 203.176 31.9147 202.802 32.96C202.429 33.968 202.186 35.088 202.074 36.32ZM256.995 37.216C256.995 35.1253 256.155 34.08 254.475 34.08C253.728 34.08 253.168 34.5093 252.795 35.368C252.422 36.2267 252.235 37.3093 252.235 38.616C252.235 40.5947 252.198 42.2373 252.123 43.544C252.086 44.8507 251.974 46.0267 251.787 47.072C251.6 48.1173 251.376 48.9387 251.115 49.536C250.854 50.1333 250.499 50.6373 250.051 51.048C249.603 51.4213 249.099 51.6827 248.539 51.832C247.979 51.944 247.27 52 246.411 52C245.104 52 244.04 51.8133 243.219 51.44C242.435 51.0667 241.875 50.544 241.539 49.872C241.203 49.2 241.035 48.36 241.035 47.352V37.216C241.035 35.1253 240.195 34.08 238.515 34.08C237.843 34.08 237.283 34.472 236.835 35.256C236.424 36.0027 236.219 36.992 236.219 38.224V46.008C236.219 48.248 235.752 49.816 234.819 50.712C233.886 51.5707 232.243 52 229.891 52C227.688 52 226.176 51.496 225.355 50.488C224.571 49.4427 224.179 47.744 224.179 45.392V31.616C224.179 29.712 224.683 28.1813 225.691 27.024C226.736 25.8667 228.118 25.288 229.835 25.288C232.896 25.288 234.838 26.2773 235.659 28.256C237.078 27.2107 238.459 26.4827 239.803 26.072C241.184 25.6613 242.79 25.456 244.619 25.456C247.382 25.456 249.379 26.6507 250.611 29.04C250.798 28.8907 250.984 28.7413 251.171 28.592C254.046 26.5013 257.574 25.456 261.755 25.456C264.406 25.456 266.31 26.464 267.467 28.48C268.624 30.496 269.203 33.8747 269.203 38.616C269.203 40.5947 269.166 42.2373 269.091 43.544C269.054 44.8507 268.942 46.0267 268.755 47.072C268.568 48.1173 268.326 48.9387 268.027 49.536C267.766 50.1333 267.374 50.6373 266.851 51.048C266.366 51.4213 265.806 51.6827 265.171 51.832C264.574 51.944 263.808 52 262.875 52C261.456 52 260.299 51.8133 259.403 51.44C258.544 51.0667 257.928 50.544 257.555 49.872C257.182 49.2 256.995 48.36 256.995 47.352V37.216Z" fill="#F38252"/>
</svg>
