<svg width="30" height="30" viewBox="0 0 30 30" fill="none" xmlns="http://www.w3.org/2000/svg">
<circle cx="15" cy="15" r="14" fill="#E4E4E4" stroke="url(#paint0_linear_277_15)" stroke-width="2"/>
<path d="M14.7454 10.463C15.1646 10.463 15.5043 10.1233 15.5043 9.70418C15.5043 9.28507 15.1646 8.94531 14.7454 8.94531C14.3263 8.94531 13.9866 9.28507 13.9866 9.70418C13.9866 10.1233 14.3263 10.463 14.7454 10.463Z" fill="white"/>
<path d="M7.821 12.0236C8.10419 12.0236 8.33377 11.794 8.33377 11.5108C8.33377 11.2276 8.10419 10.998 7.821 10.998C7.5378 10.998 7.30823 11.2276 7.30823 11.5108C7.30823 11.794 7.5378 12.0236 7.821 12.0236Z" fill="white"/>
<path d="M22.179 12.0236C22.4622 12.0236 22.6918 11.794 22.6918 11.5108C22.6918 11.2276 22.4622 10.998 22.179 10.998C21.8958 10.998 21.6663 11.2276 21.6663 11.5108C21.6663 11.794 21.8958 12.0236 22.179 12.0236Z" fill="white"/>
<path d="M8.26851 12.8277L11.6105 16.4408C11.6252 16.4569 11.6435 16.4693 11.6639 16.4768C11.6842 16.4843 11.7061 16.4868 11.7276 16.4842C11.7492 16.4815 11.7698 16.4736 11.7877 16.4613C11.8056 16.449 11.8204 16.4326 11.8307 16.4133L14.7655 11.1126C14.7966 11.0562 14.8285 11.0562 14.8609 11.1126L17.9925 16.5057C17.9968 16.5134 18.0028 16.52 18.0101 16.5249C18.0174 16.5298 18.0257 16.533 18.0344 16.5342C18.0431 16.5353 18.0519 16.5344 18.0602 16.5315C18.0685 16.5286 18.076 16.5238 18.0821 16.5175L21.5157 12.8592C21.5212 12.8539 21.5282 12.8506 21.5356 12.8496C21.5431 12.8487 21.5507 12.8502 21.5573 12.854C21.5638 12.8577 21.569 12.8635 21.5721 12.8704C21.5751 12.8774 21.5759 12.8852 21.5742 12.8926L19.6586 19.1678C19.6378 19.2333 19.5937 19.2661 19.5261 19.2661H10.2036C10.1833 19.2661 10.1635 19.2596 10.1473 19.2476C10.1312 19.2355 10.1194 19.2186 10.1139 19.1993L8.22759 12.8513C8.2081 12.7845 8.22175 12.7767 8.26851 12.8277Z" fill="white"/>
<defs>
<linearGradient id="paint0_linear_277_15" x1="2.00962" y1="22.5" x2="27.9904" y2="7.5" gradientUnits="userSpaceOnUse">
<stop stop-color="#FF8C21"/>
<stop offset="1" stop-color="#F5576E"/>
</linearGradient>
</defs>
</svg>
