<svg width="28" height="32" viewBox="0 0 28 32" fill="none" xmlns="http://www.w3.org/2000/svg">
<path d="M13.9386 3.09717C18.2105 3.09717 22.0623 6.31833 22.0623 10.6321V16.3322C22.0623 17.1384 22.2816 17.9258 22.6948 18.5964L25.248 22.7381C25.4252 23.0251 25.5271 23.3588 25.5427 23.7036C25.5583 24.0484 25.487 24.3913 25.3365 24.6957C25.186 25 24.9619 25.2544 24.6881 25.4316C24.4143 25.6088 24.1012 25.7022 23.7822 25.7018H18.0005C18.0005 26.279 17.8954 26.8506 17.6913 27.3838C17.4871 27.9171 17.1879 28.4017 16.8108 28.8098C16.4336 29.2179 15.9858 29.5417 15.493 29.7626C15.0002 29.9835 14.472 30.0972 13.9386 30.0972C13.4052 30.0972 12.877 29.9835 12.3842 29.7626C11.8914 29.5417 11.4436 29.2179 11.0664 28.8098C10.6893 28.4017 10.3901 27.9171 10.1859 27.3838C9.98181 26.8506 9.87675 26.279 9.87675 25.7018H4.09615C3.77729 25.7021 3.46433 25.6087 3.19065 25.4317C2.91697 25.2546 2.69284 25.0005 2.54215 24.6964C2.39145 24.3923 2.31986 24.0497 2.33499 23.705C2.35013 23.3604 2.45143 23.0266 2.62808 22.7394L5.18125 18.5964C5.59441 17.9259 5.81489 17.1381 5.8149 16.3322V10.6321C5.8149 6.31833 9.66553 3.09717 13.9386 3.09717ZM7.55569 10.6321V16.3322C7.55599 17.5098 7.23416 18.6612 6.63075 19.6413L4.07758 23.7829L4.0741 23.7955L4.07526 23.8043L4.0799 23.8118L4.08687 23.8168L4.09499 23.8181H23.7822L23.7903 23.8168L23.7973 23.8118L23.8019 23.8043L23.8031 23.7967C23.8032 23.7923 23.802 23.7879 23.7996 23.7842L21.2476 19.6413C20.644 18.6613 20.3218 17.5099 20.3215 16.3322V10.6321C20.3215 7.66331 17.556 4.98089 13.9386 4.98089C10.3212 4.98089 7.55569 7.66331 7.55569 10.6321ZM16.2597 25.7018H11.6175C11.6175 26.3679 11.8621 27.0068 12.2974 27.4778C12.7326 27.9488 13.323 28.2134 13.9386 28.2134C14.5542 28.2134 15.1446 27.9488 15.5798 27.4778C16.0151 27.0068 16.2597 26.3679 16.2597 25.7018Z" fill="#767676"/>
<circle cx="19.5073" cy="5" r="5" fill="#F38252"/>
</svg>
