<svg width="24" height="28" viewBox="0 0 24 28" fill="none" xmlns="http://www.w3.org/2000/svg">
<path d="M11.9386 0.256836C16.2105 0.256836 20.0623 3.478 20.0623 7.79172V13.4919C20.0623 14.2981 20.2816 15.0855 20.6948 15.7561L23.248 19.8978C23.4252 20.1848 23.5271 20.5185 23.5427 20.8633C23.5583 21.2081 23.487 21.551 23.3365 21.8553C23.186 22.1597 22.9619 22.4141 22.6881 22.5913C22.4143 22.7685 22.1012 22.8619 21.7822 22.8615H16.0005C16.0005 23.4387 15.8954 24.0102 15.6913 24.5435C15.4871 25.0768 15.1879 25.5613 14.8108 25.9695C14.4336 26.3776 13.9858 26.7014 13.493 26.9223C13.0002 27.1431 12.472 27.2568 11.9386 27.2568C11.4052 27.2568 10.877 27.1431 10.3842 26.9223C9.89139 26.7014 9.44361 26.3776 9.06644 25.9695C8.68926 25.5613 8.39006 25.0768 8.18594 24.5435C7.98181 24.0102 7.87675 23.4387 7.87675 22.8615H2.09615C1.77729 22.8618 1.46433 22.7684 1.19065 22.5913C0.916971 22.4143 0.692836 22.1601 0.542146 21.8561C0.391455 21.552 0.319859 21.2093 0.334994 20.8647C0.350128 20.52 0.451425 20.1863 0.628083 19.899L3.18125 15.7561C3.59441 15.0856 3.81489 14.2977 3.8149 13.4919V7.79172C3.8149 3.478 7.66553 0.256836 11.9386 0.256836ZM5.55569 7.79172V13.4919C5.55599 14.6695 5.23416 15.8209 4.63075 16.8009L2.07758 20.9426L2.0741 20.9552L2.07526 20.964L2.0799 20.9715L2.08687 20.9765L2.09499 20.9778H21.7822L21.7903 20.9765L21.7973 20.9715L21.8019 20.964L21.8031 20.9564C21.8032 20.9519 21.802 20.9475 21.7996 20.9439L19.2476 16.8009C18.644 15.8209 18.3218 14.6696 18.3215 13.4919V7.79172C18.3215 4.82298 15.556 2.14056 11.9386 2.14056C8.32123 2.14056 5.55569 4.82298 5.55569 7.79172ZM14.2597 22.8615H9.61754C9.61754 23.5276 9.86208 24.1665 10.2974 24.6375C10.7326 25.1085 11.323 25.3731 11.9386 25.3731C12.5542 25.3731 13.1446 25.1085 13.5798 24.6375C14.0151 24.1665 14.2597 23.5276 14.2597 22.8615Z" fill="#767676"/>
</svg>
