<svg width="28" height="28" viewBox="0 0 28 28" fill="none" xmlns="http://www.w3.org/2000/svg">
<circle cx="14" cy="14" r="14" fill="#F38252"/>
<path d="M19.6 9.33333H17.2V8.08333C17.2 7.5308 16.9893 7.00089 16.6142 6.61019C16.2391 6.21949 15.7304 6 15.2 6H12.8C12.2696 6 11.7609 6.21949 11.3858 6.61019C11.0107 7.00089 10.8 7.5308 10.8 8.08333V9.33333H8.4C7.76348 9.33333 7.15303 9.59673 6.70294 10.0656C6.25286 10.5344 6 11.1703 6 11.8333V18.5C6 19.163 6.25286 19.7989 6.70294 20.2678C7.15303 20.7366 7.76348 21 8.4 21H19.6C20.2365 21 20.847 20.7366 21.2971 20.2678C21.7471 19.7989 22 19.163 22 18.5V11.8333C22 11.1703 21.7471 10.5344 21.2971 10.0656C20.847 9.59673 20.2365 9.33333 19.6 9.33333ZM12.4 8.08333C12.4 7.97283 12.4421 7.86685 12.5172 7.78871C12.5922 7.71057 12.6939 7.66667 12.8 7.66667H15.2C15.3061 7.66667 15.4078 7.71057 15.4828 7.78871C15.5579 7.86685 15.6 7.97283 15.6 8.08333V9.33333H12.4V8.08333ZM20.4 18.5C20.4 18.721 20.3157 18.933 20.1657 19.0893C20.0157 19.2455 19.8122 19.3333 19.6 19.3333H8.4C8.18783 19.3333 7.98434 19.2455 7.83431 19.0893C7.68429 18.933 7.6 18.721 7.6 18.5V11.8333C7.6 11.6123 7.68429 11.4004 7.83431 11.2441C7.98434 11.0878 8.18783 11 8.4 11H19.6C19.8122 11 20.0157 11.0878 20.1657 11.2441C20.3157 11.4004 20.4 11.6123 20.4 11.8333V18.5Z" fill="white"/>
<path d="M14.0001 12.25C13.4463 12.25 12.9049 12.4211 12.4445 12.7415C11.984 13.062 11.6251 13.5176 11.4132 14.0505C11.2013 14.5835 11.1458 15.1699 11.2539 15.7357C11.3619 16.3015 11.6286 16.8212 12.0202 17.2291C12.4118 17.637 12.9107 17.9148 13.4538 18.0273C13.997 18.1398 14.56 18.0821 15.0716 17.8613C15.5832 17.6406 16.0205 17.2667 16.3282 16.7871C16.6359 16.3074 16.8001 15.7435 16.8001 15.1667C16.8001 14.3931 16.5051 13.6513 15.98 13.1043C15.4549 12.5573 14.7427 12.25 14.0001 12.25ZM14.0001 16.4167C13.7627 16.4167 13.5307 16.3434 13.3334 16.206C13.1361 16.0687 12.9822 15.8734 12.8914 15.645C12.8006 15.4166 12.7768 15.1653 12.8231 14.9228C12.8694 14.6803 12.9837 14.4576 13.1515 14.2828C13.3194 14.108 13.5332 13.9889 13.766 13.9407C13.9987 13.8925 14.24 13.9172 14.4593 14.0118C14.6786 14.1064 14.866 14.2666 14.9978 14.4722C15.1297 14.6778 15.2001 14.9194 15.2001 15.1667C15.2001 15.4982 15.0736 15.8161 14.8486 16.0506C14.6236 16.285 14.3183 16.4167 14.0001 16.4167Z" fill="white"/>
</svg>
