<svg width="26" height="26" viewBox="0 0 26 26" fill="none" xmlns="http://www.w3.org/2000/svg">
<path d="M19.0001 13.5999C19.3315 13.5999 19.6001 13.3312 19.6001 12.9999C19.6001 12.6686 19.3315 12.3999 19.0001 12.3999C18.6688 12.3999 18.4001 12.6686 18.4001 12.9999C18.4001 13.3312 18.6688 13.5999 19.0001 13.5999Z" fill="#767676" stroke="#767676" stroke-width="2" stroke-linecap="round" stroke-linejoin="round"/>
<path d="M13.0001 13.5999C13.3315 13.5999 13.6001 13.3312 13.6001 12.9999C13.6001 12.6686 13.3315 12.3999 13.0001 12.3999C12.6688 12.3999 12.4001 12.6686 12.4001 12.9999C12.4001 13.3312 12.6688 13.5999 13.0001 13.5999Z" fill="#767676" stroke="#767676" stroke-width="2" stroke-linecap="round" stroke-linejoin="round"/>
<path d="M7.00015 13.5999C7.33151 13.5999 7.60015 13.3312 7.60015 12.9999C7.60015 12.6686 7.33151 12.3999 7.00015 12.3999C6.66878 12.3999 6.40015 12.6686 6.40015 12.9999C6.40015 13.3312 6.66878 13.5999 7.00015 13.5999Z" fill="#767676" stroke="#767676" stroke-width="2" stroke-linecap="round" stroke-linejoin="round"/>
<path d="M13 25C19.6274 25 25 19.6274 25 13C25 6.37258 19.6274 1 13 1C6.37258 1 1 6.37258 1 13C1 15.1857 1.58436 17.2349 2.60538 19L1.6 24.4L7 23.3946C8.76504 24.4156 10.8143 25 13 25Z" stroke="#767676" stroke-width="1.8" stroke-linecap="round" stroke-linejoin="round"/>
</svg>
