<svg width="9" height="8" viewBox="0 0 9 8" fill="none" xmlns="http://www.w3.org/2000/svg">
<path d="M8.43747 2.34374C8.43747 3.53905 7.74607 4.76561 6.38279 5.99217C5.76374 6.54868 5.08971 7.04079 4.37108 7.46091C4.3244 7.48655 4.272 7.5 4.21873 7.5C4.16547 7.5 4.11307 7.48655 4.06639 7.46091C3.89842 7.36716 0 5.15233 0 2.34374C0 1.85183 0.154774 1.37239 0.442399 0.973332C0.730025 0.574273 1.13592 0.275829 1.60259 0.120273C2.06925 -0.0352826 2.57303 -0.0400632 3.04257 0.106609C3.5121 0.25328 3.92359 0.543968 4.21873 0.937497C4.51388 0.543968 4.92536 0.25328 5.3949 0.106609C5.86444 -0.0400632 6.36822 -0.0352826 6.83488 0.120273C7.30155 0.275829 7.70744 0.574273 7.99507 0.973332C8.28269 1.37239 8.43747 1.85183 8.43747 2.34374Z" fill="#C4C4C4"/>
</svg>
