<svg width="22" height="14" viewBox="0 0 22 14" fill="none" xmlns="http://www.w3.org/2000/svg">
<path d="M21.9379 6.72C21.9104 6.65 21.1311 5.005 19.4074 3.35125C17.1062 1.16375 14.1998 0 11 0C7.80022 0 4.89384 1.16375 2.59256 3.35125C0.868902 5.005 0.0895863 6.65 0.0620811 6.72C0.0211469 6.80818 0 6.90356 0 7C0 7.09644 0.0211469 7.19182 0.0620811 7.28C0.0895863 7.35 0.868902 8.995 2.59256 10.6487C4.89384 12.8362 7.80022 14 11 14C14.1998 14 17.1062 12.8362 19.4074 10.6487C21.1311 8.995 21.9104 7.35 21.9379 7.28C21.9789 7.19182 22 7.09644 22 7C22 6.90356 21.9789 6.80818 21.9379 6.72ZM11 12.6C8.17613 12.6 5.70982 11.62 3.67444 9.68625C2.83326 8.89563 2.11954 7.99037 1.55653 7C2.11878 6.00654 2.83253 5.09829 3.67444 4.305C5.70982 2.38 8.17613 1.4 11 1.4C13.8239 1.4 16.2902 2.38 18.3256 4.305C19.1675 5.09829 19.8812 6.00654 20.4435 7C19.7833 8.18125 16.9045 12.6 11 12.6ZM11 2.8C10.1296 2.8 9.27874 3.04633 8.55502 3.50783C7.83131 3.96933 7.26724 4.62528 6.93415 5.39273C6.60107 6.16018 6.51391 7.00466 6.68372 7.81938C6.85353 8.6341 7.27267 9.38247 7.88814 9.96985C8.5036 10.5572 9.28776 10.9572 10.1414 11.1193C10.9951 11.2814 11.88 11.1982 12.6841 10.8803C13.4883 10.5624 14.1756 10.0241 14.6592 9.3334C15.1427 8.64271 15.4008 7.83068 15.4008 7C15.4008 5.88609 14.9372 4.8178 14.1119 4.03015C13.2865 3.2425 12.1672 2.8 11 2.8ZM11 9.8C10.4197 9.8 9.85249 9.63578 9.37002 9.32811C8.88754 9.02045 8.51149 8.58315 8.28944 8.07151C8.06738 7.55988 8.00928 6.99689 8.12248 6.45375C8.23569 5.9106 8.51511 5.41169 8.92542 5.0201C9.33574 4.62851 9.85851 4.36184 10.4276 4.2538C10.9967 4.14576 11.5867 4.20121 12.1228 4.41314C12.6588 4.62506 13.1171 4.98395 13.4394 5.4444C13.7618 5.90486 13.9339 6.44621 13.9339 7C13.9315 7.7419 13.6216 8.45275 13.0719 8.97735C12.5222 9.50195 11.7774 9.79769 11 9.8Z" fill="#C4C4C4"/>
</svg>
