<svg width="28" height="28" viewBox="0 0 28 28" fill="none" xmlns="http://www.w3.org/2000/svg">
<path opacity="0.4" d="M14 28C21.7319 28 28 21.7319 28 14C28 6.26801 21.7319 0 14 0C6.26801 0 0 6.26801 0 14C0 21.7319 6.26801 28 14 28Z" fill="#F38252"/>
<path d="M14.4614 20.9997C14.2094 21.0837 13.7754 21.0837 13.5234 20.9997C11.3394 20.2577 6.43945 17.1357 6.43945 11.8437C6.43945 9.50571 8.31545 7.61572 10.6395 7.61572C12.0114 7.61572 13.2294 8.27371 13.9994 9.30971C14.7554 8.28771 15.9874 7.61572 17.3594 7.61572C19.6834 7.61572 21.5594 9.50571 21.5594 11.8437C21.5594 17.1357 16.6594 20.2577 14.4614 20.9997Z" fill="#F38252"/>
</svg>
