<svg width="14" height="14" viewBox="0 0 14 14" fill="none" xmlns="http://www.w3.org/2000/svg">
<path fill-rule="evenodd" clip-rule="evenodd" d="M14 7C14 10.866 10.866 14 7 14C3.134 14 0 10.866 0 7C0 3.134 3.134 0 7 0C10.866 0 14 3.134 14 7ZM9.82121 4.87877C10.0262 5.08379 10.0262 5.41621 9.82121 5.62121L6.32121 9.12121C6.11618 9.32624 5.78382 9.32624 5.57877 9.12121L4.17877 7.72121C3.97375 7.51618 3.97375 7.18382 4.17877 6.97879C4.38379 6.77376 4.71621 6.77376 4.92123 6.97879L5.95 8.00751L7.51436 6.44315L9.07879 4.87877C9.28382 4.67375 9.61618 4.67375 9.82121 4.87877Z" fill="#F38252"/>
</svg>
