<svg width="22" height="22" viewBox="0 0 22 22" fill="none" xmlns="http://www.w3.org/2000/svg">
<path d="M11 0C4.92387 0 0 4.92525 0 11C0 17.0748 4.92387 22 11 22C17.0761 22 22 17.0748 22 11C22 4.92525 17.0761 0 11 0ZM16.0971 14.1529C16.3549 14.4107 16.4998 14.7604 16.4998 15.125C16.4998 15.4896 16.3549 15.8393 16.0971 16.0971C15.8393 16.3549 15.4896 16.4998 15.125 16.4998C14.7604 16.4998 14.4107 16.3549 14.1529 16.0971L11 12.9442L7.84712 16.0971C7.71973 16.2253 7.56826 16.3269 7.40142 16.3963C7.23459 16.4657 7.05569 16.5014 6.875 16.5014C6.69431 16.5014 6.51541 16.4657 6.34858 16.3963C6.18174 16.3269 6.03027 16.2253 5.90288 16.0971C5.77508 15.9695 5.67369 15.818 5.60451 15.6512C5.53533 15.4844 5.49972 15.3056 5.49972 15.125C5.49972 14.9444 5.53533 14.7656 5.60451 14.5988C5.67369 14.432 5.77508 14.2805 5.90288 14.1529L9.05575 11L5.90288 7.84712C5.64505 7.5893 5.50021 7.23962 5.50021 6.875C5.50021 6.51038 5.64505 6.1607 5.90288 5.90288C6.1607 5.64505 6.51038 5.50021 6.875 5.50021C7.23962 5.50021 7.5893 5.64505 7.84712 5.90288L11 9.05575L14.1529 5.90288C14.4107 5.64505 14.7604 5.50021 15.125 5.50021C15.4896 5.50021 15.8393 5.64505 16.0971 5.90288C16.3549 6.1607 16.4998 6.51038 16.4998 6.875C16.4998 7.23962 16.3549 7.5893 16.0971 7.84712L12.9442 11L16.0971 14.1529Z" fill="#C4C4C4"/>
</svg>
