<svg width="25" height="32" viewBox="0 0 24 30" fill="none" xmlns="http://www.w3.org/2000/svg">
<path d="M11.6056 3.0957C15.8775 3.0957 19.7293 6.31687 19.7293 10.6306V16.3307C19.7293 17.137 19.9486 17.9244 20.3618 18.595L22.9149 22.7366C23.0922 23.0236 23.1941 23.3574 23.2097 23.7021C23.2253 24.0469 23.154 24.3898 23.0035 24.6942C22.853 24.9985 22.6289 25.2529 22.3551 25.4301C22.0813 25.6074 21.7682 25.7008 21.4492 25.7004H15.6674C15.6674 26.2776 15.5624 26.8491 15.3583 27.3824C15.1541 27.9156 14.8549 28.4002 14.4778 28.8083C14.1006 29.2165 13.6528 29.5402 13.16 29.7611C12.6672 29.982 12.139 30.0957 11.6056 30.0957C11.0722 30.0957 10.544 29.982 10.0512 29.7611C9.55838 29.5402 9.11061 29.2165 8.73343 28.8083C8.35625 28.4002 8.05706 27.9156 7.85293 27.3824C7.6488 26.8491 7.54374 26.2776 7.54374 25.7004H1.76314C1.44428 25.7006 1.13132 25.6073 0.857642 25.4302C0.583964 25.2531 0.359829 24.999 0.209138 24.6949C0.0584469 24.3908 -0.0131487 24.0482 0.00198585 23.7035C0.0171204 23.3589 0.118417 23.0251 0.295075 22.7379L2.84824 18.595C3.2614 17.9245 3.48188 17.1366 3.48189 16.3307V10.6306C3.48189 6.31687 7.33252 3.0957 11.6056 3.0957ZM5.22268 10.6306V16.3307C5.22298 17.5084 4.90115 18.6598 4.29774 19.6398L1.74458 23.7815L1.74109 23.794L1.74225 23.8028L1.7469 23.8104L1.75386 23.8154L1.76198 23.8166H21.4492L21.4573 23.8154L21.4643 23.8104L21.4689 23.8028L21.4701 23.7953C21.4702 23.7908 21.469 23.7864 21.4666 23.7827L18.9146 19.6398C18.311 18.6598 17.9888 17.5085 17.9885 16.3307V10.6306C17.9885 7.66184 15.223 4.97942 11.6056 4.97942C7.98822 4.97942 5.22268 7.66184 5.22268 10.6306ZM13.9266 25.7004H9.28453C9.28453 26.3665 9.52907 27.0053 9.96436 27.4763C10.3996 27.9474 10.99 28.212 11.6056 28.212C12.2212 28.212 12.8115 27.9474 13.2468 27.4763C13.6821 27.0053 13.9266 26.3665 13.9266 25.7004Z" fill="#767676"/>
<circle cx="17.1738" cy="5" r="5" fill="#F38252"/>
</svg>
