<svg width="23" height="16" viewBox="0 0 23 16" fill="none" xmlns="http://www.w3.org/2000/svg">
<path d="M10.8775 2.2199C11.4905 2.2199 11.9875 1.72296 11.9875 1.10995C11.9875 0.496942 11.4905 0 10.8775 0C10.2645 0 9.76758 0.496942 9.76758 1.10995C9.76758 1.72296 10.2645 2.2199 10.8775 2.2199Z" fill="#F38252"/>
<path d="M0.75 4.5C1.16421 4.5 1.5 4.16421 1.5 3.75C1.5 3.33579 1.16421 3 0.75 3C0.335786 3 0 3.33579 0 3.75C0 4.16421 0.335786 4.5 0.75 4.5Z" fill="#F38252"/>
<path d="M21.75 4.5C22.1642 4.5 22.5 4.16421 22.5 3.75C22.5 3.33579 22.1642 3 21.75 3C21.3358 3 21 3.33579 21 3.75C21 4.16421 21.3358 4.5 21.75 4.5Z" fill="#F38252"/>
<path d="M1.40446 5.67889L6.29262 10.9635C6.31412 10.9871 6.34087 11.0051 6.37066 11.0161C6.40045 11.0272 6.43242 11.0308 6.46392 11.0269C6.49541 11.023 6.52552 11.0115 6.55174 10.9935C6.57796 10.9755 6.59955 10.9514 6.6147 10.9233L10.9072 3.17018C10.9528 3.0878 10.9993 3.0878 11.0468 3.17018L15.6272 11.0584C15.6335 11.0696 15.6423 11.0793 15.6529 11.0865C15.6636 11.0937 15.6757 11.0984 15.6884 11.1C15.7012 11.1017 15.7141 11.1004 15.7262 11.0961C15.7383 11.0919 15.7493 11.0849 15.7583 11.0756L20.7804 5.72487C20.7884 5.71717 20.7986 5.71227 20.8095 5.71089C20.8205 5.70952 20.8316 5.71174 20.8412 5.71722C20.8508 5.72271 20.8584 5.73116 20.8628 5.74134C20.8673 5.75152 20.8683 5.76287 20.8659 5.77372L18.0641 14.9522C18.0337 15.048 17.9691 15.0959 17.8703 15.0959H4.23475C4.20503 15.0959 4.17616 15.0864 4.15251 15.0688C4.12885 15.0512 4.1117 15.0264 4.10364 14.9982L1.34461 5.71337C1.3161 5.61567 1.33606 5.60417 1.40446 5.67889Z" fill="#F38252"/>
</svg>
